<?xml version="1.0" standalone="no" ?>
<!DOCTYPE svg PUBLIC "-//W3C//DTD SVG 1.1//EN" "http://www.w3.org/Graphics/SVG/1.1/DTD/svg11.dtd">
<svg width="183px" height="160px" viewBox="0 0 183 160" style="background-color: #ffffff00" xmlns="http://www.w3.org/2000/svg" xmlns:xlink="http://www.w3.org/1999/xlink" version="1.1" >
<path stroke="none" fill="#ff00ff" transform="matrix(0.0833333 0 0 0.0833333 -210.375 -209)" d="M 4674.66,4073.89 L 4654.65,4062.34 L 4654.65,3473.66 L 4674.66,3462.11 L 4674.66,4073.89 Z " />
<path stroke="none" fill="#ff00ff" transform="matrix(0.0833333 0 0 0.0833333 -210.375 -209)" d="M 4602.46,4026.43 L 4582.46,4026.43 L 4582.46,3509.57 L 4602.46,3509.57 L 4602.46,4026.43 Z " />
<path stroke="none" fill="#ff00ff" transform="matrix(0.0833333 0 0 0.0833333 -210.375 -209)" d="M 4674.66,3462.11 L 4654.65,3473.66 L 4144.85,3179.33 L 4144.85,3156.23 L 4674.66,3462.11 Z " />
<path stroke="none" fill="#ff00ff" transform="matrix(0.0833333 0 0 0.0833333 -210.375 -209)" d="M 4144.85,3156.23 L 4144.85,3179.33 L 3635.04,3473.66 L 3625.23,3468 L 3634.68,3451.62 L 4144.85,3156.23 Z " />
<path stroke="none" fill="#ff00ff" transform="matrix(0.0833333 0 0 0.0833333 -210.375 -209)" d="M 4139.85,3242.48 L 4149.85,3259.8 L 3702.23,3518.23 L 3692.23,3500.91 L 4139.85,3242.48 Z " />
<path stroke="none" fill="#ff00ff" transform="matrix(0.0833333 0 0 0.0833333 -210.375 -209)" d="M 3615.78,3484.38 L 3625.23,3468 L 3635.04,3473.66 L 3635.04,4062.34 L 3615.03,4073.89 L 3615.78,3484.38 Z " />
<path stroke="none" fill="#ff00ff" transform="matrix(0.0833333 0 0 0.0833333 -210.375 -209)" d="M 3615.03,4073.89 L 3635.04,4062.34 L 4144.85,4356.67 L 4144.85,4379.77 L 3615.03,4073.89 Z " />
<path stroke="none" fill="#ff00ff" transform="matrix(0.0833333 0 0 0.0833333 -210.375 -209)" d="M 3692.23,4035.09 L 3702.23,4017.77 L 4149.85,4276.2 L 4139.85,4293.52 L 3692.23,4035.09 Z " />
<path stroke="none" fill="#ff00ff" transform="matrix(0.0833333 0 0 0.0833333 -210.375 -209)" d="M 4144.85,4379.77 L 4144.85,4356.67 L 4654.65,4062.34 L 4674.66,4073.89 L 4144.85,4379.77 Z " />
<path stroke="none" fill="#ff00ff" transform="matrix(0.0833333 0 0 0.0833333 -210.375 -209)" d="M 3634.68,3451.62 L 3625.23,3468 L 3615.42,3462.34 L 3615.42,2873.66 L 3635.43,2862.11 L 3634.68,3451.62 Z " />
<path stroke="none" fill="#ff00ff" transform="matrix(0.0833333 0 0 0.0833333 -210.375 -209)" d="M 3563.23,3426.43 L 3543.23,3426.43 L 3543.23,2909.57 L 3563.23,2909.57 L 3563.23,3426.43 Z " />
<path stroke="none" fill="#ff00ff" transform="matrix(0.0833333 0 0 0.0833333 -210.375 -209)" d="M 3635.43,2862.11 L 3615.42,2873.66 L 3105.62,2579.33 L 3105.62,2556.23 L 3635.43,2862.11 Z " />
<path stroke="none" fill="#ff00ff" transform="matrix(0.0833333 0 0 0.0833333 -210.375 -209)" d="M 3105.62,2556.23 L 3105.62,2579.33 L 2595.81,2873.66 L 2575.8,2862.11 L 3105.62,2556.23 Z " />
<path stroke="none" fill="#ff00ff" transform="matrix(0.0833333 0 0 0.0833333 -210.375 -209)" d="M 3100.62,2642.48 L 3110.62,2659.8 L 2663,2918.23 L 2653,2900.91 L 3100.62,2642.48 Z " />
<path stroke="none" fill="#ff00ff" transform="matrix(0.0833333 0 0 0.0833333 -210.375 -209)" d="M 2575.8,2862.11 L 2595.81,2873.66 L 2595.81,3462.34 L 2575.8,3473.89 L 2575.8,2862.11 Z " />
<path stroke="none" fill="#ff00ff" transform="matrix(0.0833333 0 0 0.0833333 -210.375 -209)" d="M 2575.8,3473.89 L 2595.81,3462.34 L 3105.62,3756.67 L 3105.62,3779.77 L 2575.8,3473.89 Z " />
<path stroke="none" fill="#ff00ff" transform="matrix(0.0833333 0 0 0.0833333 -210.375 -209)" d="M 2653,3435.09 L 2663,3417.77 L 3110.62,3676.2 L 3100.62,3693.52 L 2653,3435.09 Z " />
<path stroke="none" fill="#ff00ff" transform="matrix(0.0833333 0 0 0.0833333 -210.375 -209)" d="M 3105.62,3779.77 L 3105.62,3756.67 L 3615.42,3462.34 L 3625.23,3468 L 3615.78,3484.38 L 3105.62,3779.77 Z " />
</svg>
