<?xml version="1.0" standalone="no" ?>
<!DOCTYPE svg PUBLIC "-//W3C//DTD SVG 1.1//EN" "http://www.w3.org/Graphics/SVG/1.1/DTD/svg11.dtd">
<svg width="188px" height="166px" viewBox="0 0 188 166" style="background-color: #ffffff00" xmlns="http://www.w3.org/2000/svg" xmlns:xlink="http://www.w3.org/1999/xlink" version="1.1" >
<path stroke="none" fill="#ff00ff" transform="matrix(0.0833333 0 0 0.0833333 -207.917 -206.167)" d="M 4707.74,4093.02 L 4627.26,4046.56 L 4627.26,3489.44 L 4707.74,3442.98 L 4707.74,4093.02 Z " />
<path stroke="none" fill="#ff00ff" transform="matrix(0.0833333 0 0 0.0833333 -207.917 -206.167)" d="M 4572.4,4009.11 L 4552.4,4009.11 L 4552.4,3526.89 L 4572.4,3526.89 L 4572.4,4009.11 Z " />
<path stroke="none" fill="#ff00ff" transform="matrix(0.0833333 0 0 0.0833333 -207.917 -206.167)" d="M 4707.74,3442.98 L 4627.26,3489.44 L 4144.8,3210.89 L 4144.8,3117.96 L 4707.74,3442.98 Z " />
<path stroke="none" fill="#ff00ff" transform="matrix(0.0833333 0 0 0.0833333 -207.917 -206.167)" d="M 4144.8,3117.96 L 4144.8,3210.89 L 3662.34,3489.44 L 3625.2,3468 L 3657.7,3411.72 L 4144.8,3117.96 Z " />
<path stroke="none" fill="#ff00ff" transform="matrix(0.0833333 0 0 0.0833333 -207.917 -206.167)" d="M 4139.8,3277.12 L 4149.8,3294.44 L 3732.2,3535.55 L 3722.2,3518.23 L 4139.8,3277.12 Z " />
<path stroke="none" fill="#ff00ff" transform="matrix(0.0833333 0 0 0.0833333 -207.917 -206.167)" d="M 3592.7,3524.28 L 3625.2,3468 L 3662.34,3489.44 L 3662.34,4046.56 L 3581.86,4093.02 L 3592.7,3524.28 Z " />
<path stroke="none" fill="#ff00ff" transform="matrix(0.0833333 0 0 0.0833333 -207.917 -206.167)" d="M 3581.86,4093.02 L 3662.34,4046.56 L 4144.8,4325.11 L 4144.8,4418.04 L 3581.86,4093.02 Z " />
<path stroke="none" fill="#ff00ff" transform="matrix(0.0833333 0 0 0.0833333 -207.917 -206.167)" d="M 3722.2,4017.77 L 3732.2,4000.45 L 4149.8,4241.56 L 4139.8,4258.88 L 3722.2,4017.77 Z " />
<path stroke="none" fill="#ff00ff" transform="matrix(0.0833333 0 0 0.0833333 -207.917 -206.167)" d="M 4144.8,4418.04 L 4144.8,4325.11 L 4627.26,4046.56 L 4707.74,4093.02 L 4144.8,4418.04 Z " />
<path stroke="none" fill="#ff00ff" transform="matrix(0.0833333 0 0 0.0833333 -207.917 -206.167)" d="M 3657.7,3411.72 L 3625.2,3468 L 3588.06,3446.56 L 3588.06,2889.44 L 3668.54,2842.98 L 3657.7,3411.72 Z " />
<path stroke="none" fill="#ff00ff" transform="matrix(0.0833333 0 0 0.0833333 -207.917 -206.167)" d="M 3533.2,3409.11 L 3513.2,3409.11 L 3513.2,2926.89 L 3533.2,2926.89 L 3533.2,3409.11 Z " />
<path stroke="none" fill="#ff00ff" transform="matrix(0.0833333 0 0 0.0833333 -207.917 -206.167)" d="M 3668.54,2842.98 L 3588.06,2889.44 L 3105.6,2610.89 L 3105.6,2517.96 L 3668.54,2842.98 Z " />
<path stroke="none" fill="#ff00ff" transform="matrix(0.0833333 0 0 0.0833333 -207.917 -206.167)" d="M 3105.6,2517.96 L 3105.6,2610.89 L 2623.14,2889.44 L 2542.66,2842.98 L 3105.6,2517.96 Z " />
<path stroke="none" fill="#ff00ff" transform="matrix(0.0833333 0 0 0.0833333 -207.917 -206.167)" d="M 3100.6,2677.12 L 3110.6,2694.44 L 2693,2935.55 L 2683,2918.23 L 3100.6,2677.12 Z " />
<path stroke="none" fill="#ff00ff" transform="matrix(0.0833333 0 0 0.0833333 -207.917 -206.167)" d="M 2542.66,2842.98 L 2623.14,2889.44 L 2623.14,3446.56 L 2542.66,3493.02 L 2542.66,2842.98 Z " />
<path stroke="none" fill="#ff00ff" transform="matrix(0.0833333 0 0 0.0833333 -207.917 -206.167)" d="M 2542.66,3493.02 L 2623.14,3446.56 L 3105.6,3725.11 L 3105.6,3818.04 L 2542.66,3493.02 Z " />
<path stroke="none" fill="#ff00ff" transform="matrix(0.0833333 0 0 0.0833333 -207.917 -206.167)" d="M 2683,3417.77 L 2693,3400.45 L 3110.6,3641.56 L 3100.6,3658.88 L 2683,3417.77 Z " />
<path stroke="none" fill="#ff00ff" transform="matrix(0.0833333 0 0 0.0833333 -207.917 -206.167)" d="M 3105.6,3818.04 L 3105.6,3725.11 L 3588.06,3446.56 L 3625.2,3468 L 3592.7,3524.28 L 3105.6,3818.04 Z " />
</svg>
